<svg width="80" height="16" viewBox="0 0 80 16" fill="none" xmlns="http://www.w3.org/2000/svg">
<path d="M0.814453 9.77734C0.814453 9.30469 0.873047 8.87109 0.990234 8.47656C1.11133 8.07812 1.2832 7.73633 1.50586 7.45117C1.72461 7.16602 1.99023 6.94336 2.30273 6.7832C2.61523 6.62305 2.96484 6.54297 3.35156 6.54297C3.73047 6.54297 4.06055 6.60742 4.3418 6.73633C4.62695 6.86133 4.87305 7.04492 5.08008 7.28711V4H6.16406V13H5.16797L5.12109 12.332C4.91016 12.5898 4.6582 12.7852 4.36523 12.918C4.07227 13.0508 3.73047 13.1172 3.33984 13.1172C2.95703 13.1172 2.60938 13.0352 2.29688 12.8711C1.98828 12.707 1.72461 12.4805 1.50586 12.1914C1.28711 11.9023 1.11719 11.5625 0.996094 11.1719C0.875 10.7773 0.814453 10.3535 0.814453 9.90039V9.77734ZM1.89844 9.90039C1.89844 10.209 1.93164 10.502 1.99805 10.7793C2.06445 11.0566 2.16797 11.3008 2.30859 11.5117C2.44531 11.7227 2.62109 11.8906 2.83594 12.0156C3.05078 12.1367 3.30859 12.1973 3.60938 12.1973C3.97266 12.1973 4.27344 12.1152 4.51172 11.9512C4.75 11.7871 4.93945 11.5664 5.08008 11.2891V8.34766C4.93945 8.08984 4.75 7.87891 4.51172 7.71484C4.27344 7.54688 3.97656 7.46289 3.62109 7.46289C3.31641 7.46289 3.05469 7.52539 2.83594 7.65039C2.62109 7.77539 2.44531 7.94336 2.30859 8.1543C2.16797 8.36914 2.06445 8.61719 1.99805 8.89844C1.93164 9.17578 1.89844 9.46875 1.89844 9.77734V9.90039ZM11.0273 13.1172C10.582 13.1172 10.1719 13.041 9.79688 12.8887C9.42578 12.7363 9.10742 12.5234 8.8418 12.25C8.57617 11.9766 8.36914 11.6523 8.2207 11.2773C8.07227 10.9023 7.99805 10.4941 7.99805 10.0527V9.80664C7.99805 9.29492 8.08008 8.83789 8.24414 8.43555C8.4082 8.0293 8.62695 7.68555 8.90039 7.4043C9.16992 7.12695 9.47656 6.91406 9.82031 6.76562C10.168 6.61719 10.5234 6.54297 10.8867 6.54297C11.3438 6.54297 11.7422 6.62305 12.082 6.7832C12.4258 6.93945 12.7109 7.15625 12.9375 7.43359C13.1641 7.71484 13.332 8.04492 13.4414 8.42383C13.5547 8.80273 13.6113 9.21289 13.6113 9.6543V10.1406H9.08203V10.1816C9.10938 10.4902 9.16992 10.7617 9.26367 10.9961C9.36133 11.2305 9.49414 11.4375 9.66211 11.6172C9.83398 11.8086 10.041 11.959 10.2832 12.0684C10.5254 12.1777 10.793 12.2324 11.0859 12.2324C11.4727 12.2324 11.8164 12.1543 12.1172 11.998C12.418 11.8418 12.668 11.6348 12.8672 11.377L13.5293 11.8926C13.3184 12.2129 13.002 12.498 12.5801 12.748C12.1621 12.9941 11.6445 13.1172 11.0273 13.1172ZM10.8867 7.43359C10.668 7.43359 10.4609 7.47461 10.2656 7.55664C10.0703 7.63477 9.89453 7.75 9.73828 7.90234C9.58203 8.05859 9.44922 8.25 9.33984 8.47656C9.23438 8.69922 9.16016 8.95703 9.11719 9.25H12.5273V9.19727C12.5273 9.00195 12.4902 8.79297 12.416 8.57031C12.3418 8.34375 12.2383 8.14844 12.1055 7.98438C11.9727 7.82031 11.8047 7.6875 11.6016 7.58594C11.4023 7.48438 11.1641 7.43359 10.8867 7.43359ZM17.5957 13L14.9883 6.66016H16.1016L17.918 11.4414L18.0176 11.834L18.123 11.4414L19.8984 6.66016H21.0059L18.4219 13H17.5957Z" fill="#A31D1D"/>
<path d="M24.5273 12.2969C24.5273 12.0664 24.5977 11.8691 24.7383 11.7051C24.8789 11.541 25.0918 11.459 25.377 11.459C25.6582 11.459 25.8711 11.541 26.0156 11.7051C26.1641 11.8652 26.2383 12.0625 26.2383 12.2969C26.2383 12.5273 26.1641 12.7207 26.0156 12.877C25.8672 13.0332 25.6543 13.1113 25.377 13.1113C25.0957 13.1113 24.8828 13.0332 24.7383 12.877C24.5977 12.7168 24.5273 12.5234 24.5273 12.2969ZM30.3457 6.66016L30.375 7.25781C30.5039 7.03516 30.6719 6.86133 30.8789 6.73633C31.0898 6.61133 31.3438 6.54688 31.6406 6.54297C31.8086 6.54297 31.959 6.5625 32.0918 6.60156C32.2285 6.63672 32.3477 6.68945 32.4492 6.75977C32.5234 6.81445 32.5898 6.88086 32.6484 6.95898C32.7109 7.03711 32.7637 7.125 32.8066 7.22266C32.8613 7.13281 32.9258 7.04883 33 6.9707C33.0742 6.89258 33.1543 6.82422 33.2402 6.76562C33.3496 6.69922 33.4707 6.64648 33.6035 6.60742C33.7402 6.56836 33.8887 6.54688 34.0488 6.54297C34.2676 6.54297 34.4648 6.57617 34.6406 6.64258C34.8164 6.70508 34.9648 6.79883 35.0859 6.92383C35.2188 7.06445 35.3203 7.24805 35.3906 7.47461C35.4609 7.69727 35.4961 7.96094 35.4961 8.26562V13H34.4648V8.25391C34.4648 8.12109 34.4492 8.00391 34.418 7.90234C34.3867 7.80078 34.3418 7.7168 34.2832 7.65039C34.2207 7.58789 34.1426 7.54102 34.0488 7.50977C33.959 7.47852 33.8535 7.46289 33.7324 7.46289C33.6035 7.46289 33.4922 7.48047 33.3984 7.51562C33.3047 7.55078 33.2266 7.59766 33.1641 7.65625C33.1016 7.71875 33.0527 7.79102 33.0176 7.87305C32.9824 7.95117 32.959 8.03906 32.9473 8.13672C32.9473 8.15625 32.9473 8.17578 32.9473 8.19531C32.9473 8.21094 32.9473 8.23047 32.9473 8.25391V13H31.916V8.24805C31.916 8.11523 31.9004 7.99805 31.8691 7.89648C31.8418 7.79492 31.7969 7.71094 31.7344 7.64453C31.6758 7.58203 31.6016 7.53711 31.5117 7.50977C31.4258 7.47852 31.3242 7.46289 31.207 7.46289C31.0781 7.46289 30.9648 7.47852 30.8672 7.50977C30.7734 7.53711 30.6934 7.57812 30.627 7.63281C30.5762 7.67578 30.5312 7.72461 30.4922 7.7793C30.457 7.83398 30.4277 7.89258 30.4043 7.95508V13H29.373V6.66016H30.3457ZM37.2246 6.66016H40.4648V12.0625H42.5332V13H37.2246V12.0625H39.3809V7.60352H37.2246V6.66016ZM39.2402 4.99609C39.2402 4.90234 39.2539 4.81445 39.2812 4.73242C39.3125 4.65039 39.3594 4.58008 39.4219 4.52148C39.4727 4.4707 39.5371 4.43164 39.6152 4.4043C39.6973 4.37305 39.7891 4.35742 39.8906 4.35742C39.9922 4.35742 40.082 4.37305 40.1602 4.4043C40.2383 4.43164 40.3027 4.4707 40.3535 4.52148C40.416 4.57617 40.4629 4.64453 40.4941 4.72656C40.5254 4.80859 40.541 4.89844 40.541 4.99609C40.541 5.17188 40.4863 5.31836 40.377 5.43555C40.2676 5.55273 40.1055 5.61133 39.8906 5.61133C39.6719 5.61133 39.5078 5.55273 39.3984 5.43555C39.293 5.31836 39.2402 5.17188 39.2402 4.99609ZM46.8281 5.125V6.66016H49.2422V7.49805H46.8281V10.9434C46.8281 11.1895 46.8594 11.3926 46.9219 11.5527C46.9844 11.7129 47.0703 11.8398 47.1797 11.9336C47.2891 12.0312 47.4141 12.0996 47.5547 12.1387C47.6992 12.1777 47.8516 12.1973 48.0117 12.1973C48.1289 12.1973 48.25 12.1914 48.375 12.1797C48.5 12.1641 48.623 12.1465 48.7441 12.127C48.8613 12.1074 48.9707 12.0879 49.0723 12.0684C49.1777 12.0449 49.2637 12.0254 49.3301 12.0098L49.4824 12.7773C49.3926 12.832 49.2832 12.8809 49.1543 12.9238C49.0254 12.9629 48.8848 12.9961 48.7324 13.0234C48.5801 13.0547 48.418 13.0781 48.2461 13.0938C48.0781 13.1094 47.9102 13.1172 47.7422 13.1172C47.4609 13.1172 47.1973 13.0781 46.9512 13C46.709 12.918 46.498 12.7891 46.3184 12.6133C46.1387 12.4414 45.9961 12.2188 45.8906 11.9453C45.7891 11.668 45.7383 11.334 45.7383 10.9434V7.49805H44.0742V6.66016H45.7383V5.125H46.8281ZM55.623 6.54297C55.8223 6.54297 56.0293 6.55664 56.2441 6.58398C56.4629 6.61133 56.627 6.64844 56.7363 6.69531L56.5898 7.75586C56.3789 7.70898 56.1777 7.67578 55.9863 7.65625C55.7988 7.63281 55.6016 7.62109 55.3945 7.62109C55.1289 7.62109 54.8887 7.6543 54.6738 7.7207C54.459 7.7832 54.2715 7.87695 54.1113 8.00195C53.9668 8.11133 53.8398 8.24609 53.7305 8.40625C53.625 8.5625 53.5371 8.73828 53.4668 8.93359V13H52.377V6.66016H53.4082L53.4551 7.50977L53.4609 7.66797C53.7188 7.32031 54.0273 7.04688 54.3867 6.84766C54.75 6.64453 55.1621 6.54297 55.623 6.54297ZM58.8457 6.66016H62.0859V12.0625H64.1543V13H58.8457V12.0625H61.002V7.60352H58.8457V6.66016ZM60.8613 4.99609C60.8613 4.90234 60.875 4.81445 60.9023 4.73242C60.9336 4.65039 60.9805 4.58008 61.043 4.52148C61.0938 4.4707 61.1582 4.43164 61.2363 4.4043C61.3184 4.37305 61.4102 4.35742 61.5117 4.35742C61.6133 4.35742 61.7031 4.37305 61.7812 4.4043C61.8594 4.43164 61.9238 4.4707 61.9746 4.52148C62.0371 4.57617 62.084 4.64453 62.1152 4.72656C62.1465 4.80859 62.1621 4.89844 62.1621 4.99609C62.1621 5.17188 62.1074 5.31836 61.998 5.43555C61.8887 5.55273 61.7266 5.61133 61.5117 5.61133C61.293 5.61133 61.1289 5.55273 61.0195 5.43555C60.9141 5.31836 60.8613 5.17188 60.8613 4.99609ZM66.6152 6.66016H69.8145V13.041C69.8145 13.4473 69.7578 13.8066 69.6445 14.1191C69.5352 14.4316 69.375 14.6934 69.1641 14.9043C68.9492 15.1191 68.6875 15.2812 68.3789 15.3906C68.0742 15.5039 67.7266 15.5605 67.3359 15.5605C67.2148 15.5605 67.0977 15.5586 66.9844 15.5547C66.8711 15.5508 66.7598 15.5449 66.6504 15.5371C66.5605 15.5293 66.4707 15.5176 66.3809 15.502C66.291 15.4902 66.1973 15.4766 66.0996 15.4609L66.1758 14.5703C66.2422 14.582 66.3262 14.5918 66.4277 14.5996C66.5293 14.6113 66.6328 14.6191 66.7383 14.623C66.8398 14.6309 66.9375 14.6348 67.0312 14.6348C67.1289 14.6387 67.2051 14.6406 67.2598 14.6406C67.4629 14.6406 67.6543 14.6133 67.834 14.5586C68.0137 14.5078 68.1699 14.4199 68.3027 14.2949C68.4355 14.1699 68.5391 14.0039 68.6133 13.7969C68.6914 13.5938 68.7305 13.3418 68.7305 13.041V7.60352H66.6152V6.66016ZM68.5781 4.99023C68.5781 4.81445 68.6309 4.66602 68.7363 4.54492C68.8418 4.41992 69.0039 4.35742 69.2227 4.35742C69.4414 4.35742 69.6055 4.41992 69.7148 4.54492C69.8242 4.66602 69.8789 4.81445 69.8789 4.99023C69.8789 5.16602 69.8242 5.31445 69.7148 5.43555C69.6055 5.55273 69.4414 5.61133 69.2227 5.61133C69.0039 5.61133 68.8418 5.55273 68.7363 5.43555C68.6309 5.31445 68.5781 5.16602 68.5781 4.99023ZM75.8906 13.1172C75.4453 13.1172 75.0352 13.041 74.6602 12.8887C74.2891 12.7363 73.9707 12.5234 73.7051 12.25C73.4395 11.9766 73.2324 11.6523 73.084 11.2773C72.9355 10.9023 72.8613 10.4941 72.8613 10.0527V9.80664C72.8613 9.29492 72.9434 8.83789 73.1074 8.43555C73.2715 8.0293 73.4902 7.68555 73.7637 7.4043C74.0332 7.12695 74.3398 6.91406 74.6836 6.76562C75.0312 6.61719 75.3867 6.54297 75.75 6.54297C76.207 6.54297 76.6055 6.62305 76.9453 6.7832C77.2891 6.93945 77.5742 7.15625 77.8008 7.43359C78.0273 7.71484 78.1953 8.04492 78.3047 8.42383C78.418 8.80273 78.4746 9.21289 78.4746 9.6543V10.1406H73.9453V10.1816C73.9727 10.4902 74.0332 10.7617 74.127 10.9961C74.2246 11.2305 74.3574 11.4375 74.5254 11.6172C74.6973 11.8086 74.9043 11.959 75.1465 12.0684C75.3887 12.1777 75.6562 12.2324 75.9492 12.2324C76.3359 12.2324 76.6797 12.1543 76.9805 11.998C77.2812 11.8418 77.5312 11.6348 77.7305 11.377L78.3926 11.8926C78.1816 12.2129 77.8652 12.498 77.4434 12.748C77.0254 12.9941 76.5078 13.1172 75.8906 13.1172ZM75.75 7.43359C75.5312 7.43359 75.3242 7.47461 75.1289 7.55664C74.9336 7.63477 74.7578 7.75 74.6016 7.90234C74.4453 8.05859 74.3125 8.25 74.2031 8.47656C74.0977 8.69922 74.0234 8.95703 73.9805 9.25H77.3906V9.19727C77.3906 9.00195 77.3535 8.79297 77.2793 8.57031C77.2051 8.34375 77.1016 8.14844 76.9688 7.98438C76.8359 7.82031 76.668 7.6875 76.4648 7.58594C76.2656 7.48438 76.0273 7.43359 75.75 7.43359Z" fill="white"/>
</svg>
